<?xml version="1.0" standalone="no"?>
<!DOCTYPE svg PUBLIC "-//W3C//DTD SVG 20010904//EN"
 "http://www.w3.org/TR/2001/REC-SVG-20010904/DTD/svg10.dtd">
<svg version="1.0" xmlns="http://www.w3.org/2000/svg"
 width="413.000000pt" height="413.000000pt" viewBox="0 0 413.000000 413.000000"
 preserveAspectRatio="xMidYMid meet">
<metadata>
Created by potrace 1.14, written by Peter Selinger 2001-2017
</metadata>
<g transform="translate(0.000000,413.000000) scale(0.100000,-0.100000)"
fill="#000000" stroke="none">
<path d="M1917 3949 c-47 -5 -73 -13 -85 -27 -15 -17 -172 -62 -216 -62 -19 0
-105 -39 -141 -64 -37 -26 -85 -73 -85 -84 0 -4 -34 -43 -75 -87 -41 -44 -74
-88 -75 -97 0 -9 -5 -20 -11 -23 -12 -8 -50 -89 -86 -184 -30 -77 -42 -237
-42 -536 0 -197 9 -282 29 -295 9 -6 7 -10 -9 -15 -28 -9 -26 -22 15 -75 48
-63 55 -84 43 -120 -6 -16 -15 -30 -19 -30 -15 0 -23 -42 -9 -50 10 -7 10 -12
1 -23 -24 -29 2 -127 34 -127 10 0 14 -8 12 -27 -2 -19 2 -28 15 -31 13 -3 17
3 17 27 0 16 -6 36 -14 44 -8 7 -16 27 -18 43 -1 16 -9 34 -16 40 -11 8 -11
13 4 25 13 11 18 11 21 2 6 -18 23 -16 23 1 0 8 7 22 16 30 14 14 14 16 0 16
-10 0 -13 6 -10 15 4 8 9 13 13 11 3 -2 6 69 7 157 0 169 4 217 17 217 4 0 7
9 7 20 0 10 9 24 20 30 11 6 18 15 15 20 -9 15 7 90 18 83 6 -3 7 -1 3 5 -4 7
5 33 20 58 15 26 31 69 35 96 4 27 14 61 22 76 22 43 41 75 55 90 7 8 19 29
27 48 8 19 19 34 25 34 6 0 26 11 43 23 50 37 111 57 172 55 31 -1 58 -5 61
-10 3 -4 14 -8 26 -8 14 0 18 -5 14 -16 -3 -8 -2 -12 4 -9 5 3 20 -1 34 -10
18 -12 33 -14 58 -8 18 5 56 6 83 2 87 -12 125 -11 125 6 0 8 6 15 14 15 23 0
134 38 159 55 13 8 31 13 39 10 8 -3 21 1 28 10 18 22 52 19 112 -10 28 -14
58 -25 65 -25 8 0 11 -4 8 -10 -3 -5 0 -7 8 -4 17 6 67 -86 67 -122 0 -14 6
-27 14 -30 8 -3 12 -12 9 -20 -3 -9 2 -14 14 -14 20 0 38 -17 61 -57 16 -30
15 -34 -5 -26 -13 4 -10 -2 9 -23 15 -16 38 -52 53 -81 14 -29 30 -55 36 -58
5 -4 7 -15 4 -26 -4 -10 -2 -19 4 -19 6 0 13 -11 17 -25 3 -13 12 -29 19 -35
8 -6 11 -18 8 -26 -3 -9 1 -14 12 -14 12 0 15 -5 11 -16 -4 -9 -2 -22 2 -28 5
-6 12 -76 15 -156 4 -90 12 -160 21 -185 10 -28 15 -33 15 -18 2 49 23 123 36
123 8 0 11 7 8 19 -3 10 2 32 11 48 10 21 12 33 5 40 -7 7 -7 23 0 50 12 45
17 408 6 465 -5 25 -1 54 10 88 25 76 17 148 -28 245 -21 44 -41 85 -45 91
-19 29 -95 122 -123 149 -18 19 -28 37 -24 46 6 16 -55 79 -75 79 -6 0 -10 8
-10 19 0 47 -76 98 -180 121 -30 7 -59 16 -65 20 -31 24 -88 49 -97 44 -7 -4
-8 -2 -4 4 5 8 -2 12 -21 13 -15 0 -75 2 -133 3 -58 1 -118 8 -133 14 -31 13
-77 13 -180 1z m738 -149 c3 -5 2 -10 -4 -10 -5 0 -13 5 -16 10 -3 6 -2 10 4
10 5 0 13 -4 16 -10z"/>
<path d="M2579 2696 c-2 -2 -44 -7 -94 -9 -49 -3 -115 -13 -145 -22 -30 -10
-61 -19 -67 -21 -15 -4 -17 -52 -3 -74 16 -26 123 -20 195 10 26 11 140 19
123 9 -9 -6 -4 -9 14 -9 15 0 30 5 33 10 3 6 21 10 39 10 35 0 62 -21 51 -40
-4 -6 7 -10 27 -10 25 0 29 -3 18 -10 -12 -7 -8 -10 15 -10 20 0 26 3 17 9
-11 7 -11 9 2 14 20 8 16 47 -9 73 -31 33 -198 87 -216 70z"/>
<path d="M1690 2670 c-30 -4 -69 -10 -87 -14 -19 -4 -34 -3 -38 3 -11 18 -41
12 -69 -14 -15 -14 -39 -25 -54 -25 -41 -1 -74 -33 -66 -64 3 -14 13 -26 21
-26 10 0 12 -6 8 -20 -8 -25 11 -26 26 -2 10 15 21 18 60 14 39 -4 50 -1 55
12 4 11 13 14 30 10 15 -4 24 -2 24 6 0 9 21 10 83 5 45 -3 103 -7 130 -8 26
-1 47 -6 47 -12 0 -5 5 -3 10 5 8 12 12 13 19 2 7 -11 9 -10 15 3 3 9 10 14
15 11 5 -3 11 4 15 17 8 32 7 44 -3 28 -7 -11 -10 -9 -16 8 -8 27 -43 47 -58
32 -7 -7 -18 -4 -37 9 -35 25 -64 29 -130 20z m-143 -26 c-3 -3 -12 -4 -19 -1
-8 3 -5 6 6 6 11 1 17 -2 13 -5z m-61 -79 c-11 -8 -25 -15 -30 -15 -6 1 0 7
14 15 32 19 40 18 16 0z m-46 -15 c0 -5 -5 -10 -11 -10 -5 0 -7 5 -4 10 3 6 8
10 11 10 2 0 4 -4 4 -10z"/>
<path d="M2390 2509 c-13 -6 -33 -18 -44 -27 -18 -17 -66 -86 -66 -97 0 -3 26
-5 58 -4 31 1 78 0 104 -4 38 -4 48 -2 53 11 5 14 7 14 15 2 7 -11 25 -14 70
-12 47 3 60 0 60 -11 0 -13 6 -13 43 -1 68 23 82 33 82 59 0 21 -10 28 -80 54
-44 16 -98 32 -120 35 l-40 5 35 -19 35 -19 -70 5 c-50 4 -83 2 -115 -10 -24
-8 -46 -13 -48 -11 -7 7 59 36 101 45 l42 8 -45 0 c-25 1 -56 -4 -70 -9z m120
-65 c0 -8 -4 -12 -10 -9 -5 3 -10 10 -10 16 0 5 5 9 10 9 6 0 10 -7 10 -16z
m-100 -19 c0 -26 -10 -29 -44 -16 -18 7 -18 8 5 24 32 23 39 21 39 -8z m50 21
c0 -3 -4 -8 -10 -11 -5 -3 -10 -1 -10 4 0 6 5 11 10 11 6 0 10 -2 10 -4z m130
-26 c0 -4 -7 -10 -15 -14 -10 -4 -15 1 -15 14 0 13 5 18 15 14 8 -4 15 -10 15
-14z"/>
<path d="M1448 2493 c7 -3 16 -2 19 1 4 3 -2 6 -13 5 -11 0 -14 -3 -6 -6z"/>
<path d="M1695 2489 c-38 -4 -116 -20 -172 -36 -80 -22 -103 -32 -103 -45 0
-31 85 -66 140 -58 19 3 59 2 89 -3 33 -5 74 -3 110 4 31 6 75 11 99 10 48 -2
53 9 26 56 -37 63 -87 82 -189 72z m101 -24 c23 -18 22 -18 -41 0 -48 13 -49
14 -14 14 19 1 44 -6 55 -14z m-160 -92 c-2 -2 -16 1 -32 7 l-29 12 25 20 24
20 8 -28 c4 -15 6 -29 4 -31z m54 47 c0 -5 -4 -10 -10 -10 -5 0 -10 5 -10 10
0 6 5 10 10 10 6 0 10 -4 10 -10z m60 0 c0 -5 -7 -10 -15 -10 -8 0 -15 5 -15
10 0 6 7 10 15 10 8 0 15 -4 15 -10z m85 -10 c22 -24 21 -26 -27 -33 -40 -6
-41 -5 -32 31 8 27 35 29 59 2z"/>
<path d="M3044 2417 c-2 -7 -1 -24 5 -38 l9 -24 11 28 c11 29 8 47 -10 47 -5
0 -12 -6 -15 -13z"/>
<path d="M1045 2370 c4 -17 10 -68 14 -114 5 -46 11 -88 15 -94 13 -21 45
-210 39 -231 -4 -16 -2 -20 10 -15 9 3 18 12 21 19 2 7 13 12 23 11 10 -2 12
-1 6 1 -7 3 -13 17 -13 32 0 16 -9 39 -19 53 -28 34 -61 140 -61 190 0 54 17
117 38 142 10 11 11 16 5 12 -7 -4 -23 0 -35 8 -36 26 -51 21 -43 -14z"/>
<path d="M1250 2096 c0 -9 5 -16 10 -16 6 0 10 4 10 9 0 6 -4 13 -10 16 -5 3
-10 -1 -10 -9z"/>
<path d="M1250 2041 c-5 -11 -12 -41 -15 -67 -8 -61 -8 -62 -50 -61 -51 1 -65
-17 -27 -37 17 -9 36 -16 42 -16 14 0 13 27 -2 34 -7 3 -5 5 5 3 19 -2 51 -72
41 -89 -3 -4 2 -5 12 -1 12 5 15 15 11 44 -5 38 -4 39 24 39 26 0 28 2 19 19
-5 11 -10 33 -10 50 0 40 -9 61 -27 61 -10 0 -14 7 -10 20 7 25 1 26 -13 1z"/>
<path d="M2204 2006 c-25 -19 -15 -27 41 -33 30 -4 45 -10 45 -20 0 -8 6 -13
13 -10 17 6 9 39 -15 60 -25 21 -57 22 -84 3z"/>
<path d="M1825 2000 c3 -5 8 -10 11 -10 2 0 4 5 4 10 0 6 -5 10 -11 10 -5 0
-7 -4 -4 -10z"/>
<path d="M3010 2000 c0 -5 5 -10 10 -10 6 0 10 5 10 10 0 6 -4 10 -10 10 -5 0
-10 -4 -10 -10z"/>
<path d="M1922 1984 c-12 -8 -20 -20 -17 -25 9 -13 99 -11 113 3 8 8 15 8 27
-2 10 -8 15 -9 15 -1 0 15 -54 41 -87 41 -16 0 -39 -7 -51 -16z"/>
<path d="M2882 1949 c-13 -20 -8 -59 8 -59 10 0 19 56 10 69 -3 6 -11 1 -18
-10z"/>
<path d="M1333 1920 c4 -16 2 -32 -3 -35 -15 -9 -6 -100 10 -100 8 0 17 -9 20
-20 11 -41 27 -58 46 -50 13 5 15 9 7 12 -15 6 -18 63 -3 63 6 0 10 7 10 15 0
9 -6 12 -15 9 -11 -4 -15 1 -15 17 0 25 -19 84 -33 107 -15 23 -30 13 -24 -18z"/>
<path d="M1902 1931 c-11 -6 -10 -10 4 -15 20 -8 32 0 18 14 -5 5 -15 5 -22 1z"/>
<path d="M2815 1846 c-23 -27 -35 -57 -35 -86 0 -37 22 -40 38 -6 26 59 24
125 -3 92z"/>
<path d="M1331 1754 c0 -11 3 -14 6 -6 3 7 2 16 -1 19 -3 4 -6 -2 -5 -13z"/>
<path d="M2502 1733 c-10 -4 -4 -15 19 -39 33 -35 49 -36 49 -4 0 35 -34 57
-68 43z"/>
<path d="M1705 1718 c-20 -11 -35 -28 -35 -40 0 -11 45 5 57 21 24 31 14 39
-22 19z"/>
<path d="M2226 1711 c-3 -4 13 -14 35 -21 l40 -13 -33 -14 c-20 -9 -71 -14
-133 -15 -83 0 -93 -2 -61 -9 22 -5 85 -8 140 -6 56 2 115 0 131 -5 23 -6 36
-4 57 12 15 11 36 20 47 20 11 0 26 3 35 6 28 11 6 24 -42 24 -26 1 -76 7
-112 15 -76 17 -97 18 -104 6z"/>
<path d="M1872 1681 c-8 -4 -37 -6 -66 -4 -38 3 -56 1 -65 -10 -10 -13 -8 -16
9 -22 12 -4 24 -4 27 -2 3 3 17 1 32 -5 34 -14 138 -10 169 6 l25 13 -34 7
c-27 5 -31 9 -19 16 11 7 4 10 -25 10 -22 0 -46 -4 -53 -9z"/>
<path d="M1360 1631 c0 -5 5 -13 10 -16 6 -3 10 -2 10 4 0 5 -4 13 -10 16 -5
3 -10 2 -10 -4z"/>
<path d="M1411 1454 c0 -11 3 -14 6 -6 3 7 2 16 -1 19 -3 4 -6 -2 -5 -13z"/>
<path d="M1431 1435 c-1 -43 9 -75 25 -75 8 0 14 -5 14 -12 0 -6 23 -37 50
-69 50 -58 61 -76 38 -64 -26 14 79 -78 140 -122 43 -31 77 -47 105 -50 23 -3
58 -12 77 -20 85 -39 134 -47 255 -44 90 2 123 6 131 17 6 8 19 14 27 14 9 0
46 18 82 40 36 22 70 40 75 40 6 0 10 3 10 8 0 4 17 18 38 32 20 14 39 27 42
31 3 3 20 14 38 24 17 11 32 23 32 27 0 4 7 8 16 8 9 0 18 9 21 20 3 11 9 18
13 15 8 -5 24 64 17 71 -3 3 -12 -2 -20 -11 -9 -8 -20 -15 -26 -15 -5 0 -18
-11 -29 -25 -11 -14 -25 -25 -31 -25 -6 0 -11 -4 -11 -10 0 -5 -6 -7 -14 -4
-8 3 -16 -3 -19 -16 -4 -17 -10 -20 -29 -15 -13 4 -20 4 -16 0 11 -12 -11 -35
-34 -35 -10 0 -32 -7 -48 -15 -16 -8 -50 -17 -75 -19 -24 -3 -50 -8 -57 -13
-7 -4 -22 -8 -33 -9 -11 -1 -51 -7 -89 -13 -37 -6 -75 -10 -85 -7 -9 3 -34 7
-56 11 -21 3 -46 12 -55 19 -9 8 -33 12 -64 10 -28 -2 -55 0 -60 5 -6 4 -29
13 -52 20 -23 7 -58 29 -78 47 -20 19 -41 34 -45 34 -5 0 -14 7 -21 15 -7 8
-18 15 -26 15 -17 0 -76 40 -111 76 -29 30 -49 65 -56 99 -3 13 -5 10 -6 -10z"/>
<path d="M1328 1401 c-20 -18 -46 -52 -58 -76 -11 -24 -27 -46 -34 -48 -8 -3
-24 -23 -36 -45 -16 -28 -31 -42 -52 -46 -15 -3 -40 -17 -53 -30 -30 -30 -33
-24 -5 12 16 20 18 27 8 34 -34 21 -115 -4 -136 -43 -10 -16 -23 -27 -30 -24
-7 3 -10 0 -7 -5 6 -10 -21 -59 -40 -72 -5 -4 -17 -8 -25 -8 -13 0 -13 1 0 10
8 5 12 12 8 15 -6 6 -57 -21 -68 -36 -3 -4 -32 -10 -65 -13 l-60 -6 38 15 c21
8 44 12 52 8 17 -6 45 13 45 30 0 7 -4 7 -12 -1 -15 -15 -28 -15 -28 -1 0 17
32 38 57 39 12 0 27 10 34 21 10 20 9 21 -17 15 -16 -4 -40 -14 -54 -21 -14
-8 -36 -19 -50 -26 -129 -61 -162 -88 -118 -97 10 -2 18 1 18 7 0 6 8 11 17
11 15 0 14 -2 -3 -15 -10 -8 -31 -15 -45 -15 -15 0 -32 -7 -39 -15 -7 -8 -27
-15 -46 -15 -18 0 -45 -5 -60 -10 -19 -8 -30 -8 -38 0 -15 15 -29 12 -22 -5 4
-12 0 -14 -21 -9 -18 5 -24 4 -19 -5 5 -7 -2 -11 -19 -11 -32 0 -104 -36 -112
-55 -3 -8 -9 -15 -15 -15 -5 0 -6 5 -3 10 3 6 -1 10 -9 10 -9 0 -16 -4 -16
-10 0 -5 -10 -10 -23 -10 -13 0 -28 -5 -34 -11 -6 -6 -17 -9 -25 -6 -8 3 1 10
20 17 18 7 31 14 29 16 -3 3 -39 -5 -119 -27 l-38 -10 0 -169 0 -170 60 0 c54
0 60 2 60 21 0 11 5 17 10 14 6 -4 10 16 11 52 1 32 4 69 9 83 4 15 6 -11 5
-65 -2 -73 -1 -79 4 -35 l8 55 1 -62 2 -63 45 0 45 0 0 83 c0 83 20 166 61
250 11 22 19 41 19 43 0 2 -15 4 -32 5 -18 0 -26 3 -18 6 8 3 31 13 50 23 75
37 360 67 313 32 -12 -9 -40 -11 -93 -7 -59 4 -69 3 -45 -5 42 -15 130 -16
147 -3 7 6 24 13 37 15 14 1 26 9 29 16 3 9 -4 11 -25 6 -39 -9 -21 7 25 23
27 9 47 10 75 2 46 -12 48 -20 3 -12 -19 3 -36 1 -40 -6 -5 -7 9 -11 45 -11
34 0 59 -6 70 -16 17 -15 19 -14 33 21 9 20 25 48 36 62 22 28 26 24 9 -8 -11
-22 -14 -33 -24 -89 -5 -32 -4 -33 6 -12 8 15 18 21 28 17 12 -5 13 -3 5 5
-13 13 -7 50 8 50 6 0 8 7 4 15 -3 9 3 24 15 36 11 11 24 30 29 42 6 14 9 16
9 6 1 -8 -6 -24 -14 -35 -8 -10 -15 -29 -15 -40 0 -12 -7 -24 -15 -28 -8 -3
-15 -10 -15 -16 0 -6 5 -8 10 -5 13 8 13 7 -5 -61 -8 -32 -13 -59 -12 -61 2
-2 25 8 51 22 26 14 55 27 64 28 10 2 27 8 39 15 18 10 29 9 57 -5 42 -19 39
-36 -3 -20 -22 8 -36 8 -56 -1 -15 -7 -32 -9 -38 -6 -7 4 -9 3 -4 -1 4 -5 -3
-20 -15 -34 l-23 -25 36 26 c36 27 49 31 85 29 23 -1 62 -27 53 -35 -3 -3 -20
-1 -38 5 -41 15 -70 6 -126 -36 -25 -20 -50 -33 -54 -30 -19 11 -79 -72 -90
-124 -15 -70 -15 -181 1 -181 6 0 9 -3 5 -6 -3 -3 -2 -17 3 -30 6 -14 6 -26 0
-29 -6 -4 -10 -24 -10 -46 0 -41 8 -46 58 -33 20 6 22 12 18 45 -2 21 -6 42
-9 46 -3 5 -8 28 -12 52 -5 32 -3 41 6 36 8 -6 10 11 5 66 -5 53 -4 70 3 59 9
-12 11 -9 12 15 3 64 7 96 14 103 6 6 0 -111 -10 -200 -2 -18 2 -31 13 -38 14
-8 14 -9 2 -10 -13 0 -13 -1 0 -10 9 -6 10 -10 3 -10 -12 0 -13 -113 -1 -126
4 -3 37 9 74 26 45 22 88 34 130 38 l63 5 -5 31 c-3 17 -10 51 -15 76 -11 46
-29 282 -23 289 2 2 6 -5 10 -15 18 -56 40 -104 47 -104 4 0 7 -9 7 -20 0 -18
6 -37 36 -107 8 -17 14 -35 14 -41 0 -13 55 -72 68 -72 15 0 22 40 11 69 -6
14 -10 51 -10 81 0 30 -5 76 -10 101 -8 35 -7 60 5 105 9 36 13 84 11 124 -4
61 -53 474 -59 494 -1 5 -18 -5 -38 -23z m-420 -418 c-12 -20 -24 -31 -26 -25
-4 13 26 62 39 62 4 0 -1 -16 -13 -37z m185 -10 c-13 -34 -44 -45 -36 -12 4
16 8 17 14 7 7 -10 9 -9 9 5 0 9 4 17 10 17 5 0 6 -8 3 -17z m108 -53 c13 -10
19 -19 12 -20 -6 0 -15 5 -18 10 -9 14 -58 13 -73 -2 -9 -9 -12 -9 -12 3 0 9
3 19 7 22 13 14 61 6 84 -13z m-941 -54 c0 -3 -4 -8 -10 -11 -5 -3 -10 -1 -10
4 0 6 5 11 10 11 6 0 10 -2 10 -4z m-37 -63 c-7 -2 -13 -11 -13 -19 0 -8 -7
-14 -15 -14 -13 0 -14 4 -5 20 6 11 18 20 28 19 10 0 12 -3 5 -6z m-46 -75
c-3 -8 -6 -5 -6 6 -1 11 2 17 5 13 3 -3 4 -12 1 -19z m1036 -175 c-13 -2 -33
-2 -45 0 -13 2 -3 4 22 4 25 0 35 -2 23 -4z m-246 -35 c-3 -7 -5 -2 -5 12 0
14 2 19 5 13 2 -7 2 -19 0 -25z m134 15 c-10 -4 -10 -7 -1 -13 8 -5 7 -9 -5
-13 -10 -4 -14 -3 -9 4 4 8 -1 9 -17 5 -24 -7 -24 -7 1 8 14 9 30 15 35 15 6
0 4 -3 -4 -6z m107 0 c-10 -2 -26 -2 -35 0 -10 3 -2 5 17 5 19 0 27 -2 18 -5z
m-61 -9 c-3 -3 -12 -4 -19 -1 -8 3 -5 6 6 6 11 1 17 -2 13 -5z m58 -13 c-6 -5
-29 -11 -52 -13 -50 -4 -44 9 7 15 19 2 39 5 45 5 6 1 6 -1 0 -7z"/>
<path d="M2691 1314 c0 -11 3 -14 6 -6 3 7 2 16 -1 19 -3 4 -6 -2 -5 -13z"/>
<path d="M2711 1281 c-6 -28 -11 -63 -11 -76 0 -17 -6 -25 -17 -25 -14 0 -15
-2 -5 -9 17 -10 12 -67 -6 -63 -8 1 -12 -11 -11 -41 2 -41 -15 -132 -32 -172
-8 -18 -29 -97 -33 -120 -1 -5 -4 -14 -7 -20 -4 -5 -12 -35 -19 -65 -7 -30
-16 -60 -21 -65 -7 -9 -27 -87 -46 -177 -3 -16 -8 -28 -12 -28 -4 0 -7 -8 -7
-17 -1 -10 -5 -27 -9 -38 -5 -11 18 14 51 55 32 41 62 77 66 78 4 2 8 8 8 13
0 5 12 28 27 52 15 23 40 67 55 97 34 68 34 62 4 -37 -12 -43 -31 -105 -40
-138 -10 -33 -24 -70 -32 -82 -14 -23 -14 -23 42 -23 47 0 70 -7 128 -38 73
-39 96 -44 108 -27 5 6 8 3 8 -6 0 -14 6 -15 45 -6 24 6 46 16 49 22 6 16 -23
205 -36 229 -6 11 -6 16 0 12 12 -7 22 16 22 50 0 14 6 24 14 24 27 0 4 40
-41 70 -73 49 -100 60 -150 60 -52 0 -64 -5 -82 -35 l-13 -20 7 20 c4 11 11
34 15 50 5 19 8 23 9 11 1 -16 4 -17 13 -8 20 20 84 14 133 -13 26 -13 42 -18
36 -11 -20 23 -77 46 -116 46 -25 0 -35 4 -33 13 7 19 53 20 88 2 18 -9 34
-14 37 -11 11 11 -71 38 -104 34 -33 -4 -33 -4 -14 15 17 17 23 18 57 7 21 -7
72 -33 112 -57 41 -23 75 -43 78 -43 2 0 2 21 -1 48 -5 58 -28 125 -55 159
-11 14 -17 30 -13 37 5 7 9 5 11 -7 2 -9 7 -15 12 -12 4 3 6 14 3 25 -3 11 -9
17 -14 15 -4 -3 -13 5 -20 17 -20 40 -42 60 -50 47 -9 -15 0 -41 11 -34 8 5
24 -25 17 -31 -10 -10 -37 25 -41 52 -4 38 -59 96 -93 98 -21 1 -22 2 -6 14
15 11 14 12 -8 12 -23 1 -23 1 -5 15 20 15 20 15 0 16 -19 0 -19 1 0 8 18 7
17 11 -16 46 l-35 39 -12 -53z m117 -598 c-10 -2 -28 -2 -40 0 -13 2 -5 4 17
4 22 1 32 -1 23 -4z m47 -13 c3 -6 -1 -7 -9 -4 -18 7 -21 14 -7 14 6 0 13 -4
16 -10z m-88 -6 c-3 -3 -12 -4 -19 -1 -8 3 -5 6 6 6 11 1 17 -2 13 -5z m40 0
c-3 -3 -12 -4 -19 -1 -8 3 -5 6 6 6 11 1 17 -2 13 -5z m-54 -21 c-7 -2 -19 -2
-25 0 -7 3 -2 5 12 5 14 0 19 -2 13 -5z m64 1 c-3 -3 -12 -4 -19 -1 -8 3 -5 6
6 6 11 1 17 -2 13 -5z m89 -20 c-3 -9 -6 -18 -6 -20 0 -2 -4 -4 -9 -4 -5 0 -7
9 -4 20 3 11 10 20 15 20 6 0 7 -7 4 -16z m-39 -266 c-3 -8 -6 -5 -6 6 -1 11
2 17 5 13 3 -3 4 -12 1 -19z"/>
<path d="M2681 1234 c0 -11 3 -14 6 -6 3 7 2 16 -1 19 -3 4 -6 -2 -5 -13z"/>
<path d="M1412 1205 c0 -16 2 -22 5 -12 2 9 2 23 0 30 -3 6 -5 -1 -5 -18z"/>
<path d="M2915 1171 c24 -10 62 -51 49 -51 -5 0 -17 9 -27 20 -31 36 -38 21
-10 -22 15 -24 28 -44 29 -46 0 -1 9 0 18 4 9 3 14 9 12 13 -2 3 33 5 77 4 45
-1 90 1 100 4 23 6 12 23 -16 23 -12 0 -62 11 -112 24 -148 39 -143 38 -120
27z"/>
<path d="M890 1145 c-8 -9 -14 -25 -15 -35 -1 -15 2 -17 16 -9 24 12 28 21 20
42 -6 18 -8 18 -21 2z"/>
<path d="M3070 1070 l-35 -7 40 -1 c22 0 49 3 60 8 18 8 18 9 -5 8 -14 0 -41
-4 -60 -8z"/>
<path d="M3235 1073 c-31 -7 -40 -21 -11 -16 15 3 29 9 32 14 3 5 4 8 2 8 -2
-1 -12 -3 -23 -6z"/>
<path d="M3225 1040 c-33 -11 -82 -20 -109 -20 -43 0 -48 -2 -43 -19 4 -17 2
-18 -14 -8 -14 8 -22 9 -27 1 -4 -6 -14 -13 -23 -17 -15 -5 -13 -13 14 -71 20
-41 34 -61 39 -53 4 6 3 16 -2 21 -15 15 -12 33 5 33 9 0 17 -15 21 -44 9 -59
25 -54 22 7 -3 49 -3 50 -36 50 -21 0 -31 4 -26 11 3 6 17 8 30 5 18 -5 22 -3
18 9 -8 21 10 19 30 -4 11 -12 13 -21 7 -25 -7 -5 -7 -15 0 -33 5 -15 8 -32 5
-40 -3 -7 -1 -13 5 -13 6 0 9 -6 6 -13 -3 -9 6 -11 33 -9 20 2 75 -3 122 -12
95 -18 128 -20 128 -7 0 4 -33 12 -72 16 -190 21 -186 20 -154 33 29 13 33 12
181 -18 22 -5 42 -6 45 -4 10 11 -24 21 -111 34 -65 9 -86 16 -75 22 10 6 29
5 49 -1 18 -6 41 -11 52 -11 20 0 102 -5 160 -8 33 -2 24 -18 -15 -24 -14 -2
30 -4 98 -4 98 0 122 3 117 13 -7 21 25 28 43 9 15 -15 15 -16 0 -16 -9 0 -19
6 -21 13 -4 7 -6 6 -6 -4 -1 -13 13 -18 64 -24 116 -12 106 11 -28 65 -71 28
-127 39 -127 23 0 -3 7 -15 17 -25 13 -14 13 -18 2 -18 -8 0 -19 10 -24 23
-13 29 -100 87 -132 87 -14 0 -32 8 -41 19 -13 14 -153 74 -165 70 -1 0 -29
-9 -62 -19z m49 -79 c-4 -3 -9 0 -11 7 -4 10 -9 9 -24 -4 -23 -21 -25 -12 -3
11 13 12 19 13 30 4 8 -7 12 -15 8 -18z m421 -91 c12 -19 -12 -10 -31 11 -19
22 -19 22 3 10 12 -6 25 -16 28 -21z m-20 -30 c3 -6 -1 -7 -9 -4 -18 7 -21 14
-7 14 6 0 13 -4 16 -10z"/>
<path d="M3100 1038 c0 -11 22 -10 40 2 11 8 9 9 -12 8 -16 -1 -28 -6 -28 -10z"/>
<path d="M3005 1030 c-3 -5 -2 -10 4 -10 5 0 13 5 16 10 3 6 2 10 -4 10 -5 0
-13 -4 -16 -10z"/>
<path d="M453 990 c-36 -15 -29 -33 10 -26 17 4 44 8 60 10 30 3 50 16 25 16
-9 0 -28 2 -44 5 -16 2 -39 0 -51 -5z"/>
<path d="M770 914 c0 -8 5 -12 11 -9 6 4 23 11 37 15 25 8 24 8 -10 9 -28 1
-38 -3 -38 -15z"/>
<path d="M645 895 c-30 -9 -74 -12 -110 -9 -49 3 -55 2 -35 -6 30 -13 88 -15
121 -4 29 10 35 11 77 12 17 1 32 7 32 12 0 13 -24 12 -85 -5z"/>
<path d="M775 878 c-11 -7 -45 -14 -76 -15 -31 -1 -68 -7 -82 -12 -17 -7 -43
-5 -83 4 -68 16 -82 12 -91 -24 -3 -14 -19 -58 -35 -98 -23 -58 -28 -87 -28
-152 l0 -81 123 0 c123 0 156 7 142 30 -5 8 -4 11 3 6 6 -3 13 2 15 11 4 16 5
15 7 -2 l1 -20 10 20 c7 15 8 12 3 -12 -5 -31 -4 -33 25 -35 49 -3 84 -7 114
-14 17 -4 27 -2 27 5 0 6 -6 11 -12 11 -10 0 -10 2 0 9 8 4 13 10 11 12 -2 5
10 94 18 128 4 16 2 22 -5 17 -6 -3 -13 0 -15 6 -3 7 -3 -5 0 -26 4 -28 2 -42
-9 -50 -8 -6 -22 -29 -31 -51 -20 -50 -21 -35 -2 29 10 33 15 89 14 165 0 64
3 124 6 134 8 20 -19 23 -50 5z m-15 -78 c0 -21 -5 -30 -17 -31 -16 -1 -16 -2
-2 -6 11 -2 15 -11 12 -23 -3 -11 -11 -16 -19 -13 -9 3 -14 -3 -15 -18 l-1
-24 -7 25 c-4 15 -3 28 3 32 7 5 5 8 -4 8 -13 0 -13 1 0 10 8 5 11 10 7 10 -4
0 -2 6 5 14 9 10 15 11 20 2 4 -6 8 1 8 17 0 15 2 27 5 27 3 0 5 -13 5 -30z
m33 -67 c-7 -2 -19 -2 -25 0 -7 3 -2 5 12 5 14 0 19 -2 13 -5z m-66 -75 c-3
-8 -6 -5 -6 6 -1 11 2 17 5 13 3 -3 4 -12 1 -19z m-26 -75 c-12 -20 -14 -14
-5 12 4 9 9 14 11 11 3 -2 0 -13 -6 -23z"/>
<path d="M856 879 c-13 -40 -16 -70 -7 -65 11 7 25 65 17 73 -3 3 -8 0 -10 -8z"/>
<path d="M356 854 c-15 -40 3 -47 21 -9 9 20 8 25 -2 25 -7 0 -16 -7 -19 -16z"/>
<path d="M402 843 c-6 -16 -13 -37 -16 -48 l-6 -20 16 20 c8 11 22 32 30 48
12 23 12 27 0 27 -7 0 -18 -12 -24 -27z"/>
<path d="M896 848 c-9 -34 -7 -48 4 -48 13 0 29 41 23 58 -8 19 -20 14 -27
-10z"/>
<path d="M985 815 c-16 -7 -23 -14 -15 -14 8 0 26 6 40 14 32 18 14 18 -25 0z"/>
<path d="M3505 800 l-30 -8 30 0 c17 0 39 3 50 8 l20 9 -20 -1 c-11 0 -33 -4
-50 -8z"/>
<path d="M3093 775 c-9 -20 -8 -82 1 -92 1 -2 7 24 12 57 11 64 6 76 -13 35z"/>
<path d="M3715 790 c3 -6 22 -10 41 -10 46 0 36 16 -11 18 -21 1 -33 -3 -30
-8z"/>
<path d="M3858 793 c7 -3 16 -2 19 1 4 3 -2 6 -13 5 -11 0 -14 -3 -6 -6z"/>
<path d="M880 781 c0 -6 4 -13 10 -16 6 -3 7 1 4 9 -7 18 -14 21 -14 7z"/>
<path d="M3037 777 c-3 -8 -1 -20 4 -28 6 -10 9 -7 9 14 0 29 -5 35 -13 14z"/>
<path d="M3062 760 c0 -19 2 -27 5 -17 2 9 2 25 0 35 -3 9 -5 1 -5 -18z"/>
<path d="M3140 746 c0 -34 4 -46 18 -49 14 -4 14 -5 1 -6 -14 -1 -16 -13 -12
-88 3 -63 0 -100 -12 -132 -25 -72 -21 -89 23 -96 20 -4 53 -11 72 -16 40 -10
170 -12 194 -3 13 5 16 26 18 113 l2 106 6 -110 6 -110 2 96 c3 135 -6 188
-32 200 -20 9 -20 9 2 5 12 -2 22 0 22 4 0 5 -10 11 -22 13 -18 3 -17 5 7 6
17 1 25 5 19 9 -9 5 -8 11 2 20 12 11 14 8 15 -15 2 -22 3 -20 9 12 l7 40 1
-40 c1 -22 -1 -58 -5 -80 -7 -40 -7 -40 -13 -10 -4 17 -4 -33 -2 -110 3 -77 5
-141 7 -142 1 -2 21 3 46 10 l44 13 3 117 c2 90 0 117 -10 117 -9 0 -10 3 -2
8 6 4 14 40 18 81 l7 74 -48 -7 c-127 -17 -172 -18 -262 -2 -135 23 -131 24
-131 -28z m395 -66 c13 -6 15 -9 5 -9 -8 0 -22 4 -30 9 -18 12 -2 12 25 0z"/>
<path d="M955 770 c-3 -6 1 -7 9 -4 18 7 21 14 7 14 -6 0 -13 -4 -16 -10z"/>
<path d="M314 738 c-13 -24 -18 -61 -20 -138 l-2 -105 7 90 c5 50 15 110 25
134 20 54 14 65 -10 19z"/>
<path d="M355 723 c-20 -58 -30 -170 -18 -200 5 -15 8 4 9 60 1 61 6 94 22
130 25 55 25 57 13 57 -5 0 -17 -21 -26 -47z"/>
<path d="M2971 767 c2 -1 15 -11 29 -22 l25 -20 -19 23 c-11 12 -24 22 -29 22
-6 0 -8 -1 -6 -3z"/>
<path d="M3613 720 c0 -30 2 -43 4 -27 2 15 2 39 0 55 -2 15 -4 2 -4 -28z"/>
<path d="M3660 714 c0 -36 4 -54 9 -46 8 13 4 92 -5 101 -2 2 -4 -22 -4 -55z"/>
<path d="M3864 762 c3 -5 -31 -7 -74 -4 l-80 5 -1 -84 c-1 -46 -3 -134 -5
-195 l-2 -111 86 -7 c48 -3 117 -9 153 -12 l65 -7 -3 39 c-2 32 -1 34 6 14 l8
-25 5 25 c5 24 5 24 7 -3 0 -16 5 -25 11 -22 5 3 7 0 4 -8 -5 -15 39 -57 61
-57 18 0 25 71 25 245 l0 153 -27 5 c-16 3 -57 10 -93 16 -108 19 -120 22
-114 32 3 5 -4 9 -16 9 -12 0 -19 -4 -16 -8z m166 -122 c0 -12 -7 -20 -17 -20
-15 0 -16 2 -3 10 13 9 13 11 0 20 -13 8 -12 10 3 10 10 0 17 -8 17 -20z m17
-17 c-3 -10 -5 -4 -5 12 0 17 2 24 5 18 2 -7 2 -21 0 -30z m-20 -75 c-2 -13
-4 -5 -4 17 -1 22 1 32 4 23 2 -10 2 -28 0 -40z m20 -40 c-3 -7 -5 -2 -5 12 0
14 2 19 5 13 2 -7 2 -19 0 -25z m-10 -50 c-3 -7 -5 -2 -5 12 0 14 2 19 5 13 2
-7 2 -19 0 -25z"/>
<path d="M2970 736 c0 -2 8 -10 18 -17 15 -13 16 -12 3 4 -13 16 -21 21 -21
13z"/>
<path d="M841 704 c0 -11 3 -14 6 -6 3 7 2 16 -1 19 -3 4 -6 -2 -5 -13z"/>
<path d="M3092 568 c2 -46 -1 -96 -6 -113 -6 -23 -6 -27 3 -19 17 15 31 119
24 170 -10 74 -23 49 -21 -38z"/>
<path d="M3607 575 c-10 -97 -9 -175 2 -175 11 0 18 136 11 200 -5 44 -6 43
-13 -25z"/>
<path d="M3010 625 c-8 -47 0 -201 14 -250 l16 -60 -5 55 c-3 30 -8 98 -11
150 -5 90 -10 128 -14 105z"/>
<path d="M3055 508 c3 -93 8 -134 20 -155 l16 -28 -5 30 c-3 17 -10 71 -16
120 -5 50 -12 106 -14 125 -3 19 -3 -22 -1 -92z"/>
<path d="M3655 563 c-4 -40 -3 -96 1 -125 8 -51 9 -49 15 52 7 125 -5 182 -16
73z"/>
<path d="M661 514 c0 -11 3 -14 6 -6 3 7 2 16 -1 19 -3 4 -6 -2 -5 -13z"/>
<path d="M872 495 c0 -16 2 -22 5 -12 2 9 2 23 0 30 -3 6 -5 -1 -5 -18z"/>
<path d="M410 460 c-16 -5 18 -8 92 -9 68 -1 119 3 123 9 7 12 -177 12 -215 0z"/>
<path d="M671 466 c10 -9 89 -15 89 -6 0 6 -21 10 -47 10 -25 0 -44 -2 -42 -4z"/>
<path d="M0 450 c0 -13 107 -13 115 0 4 6 -17 10 -54 10 -34 0 -61 -4 -61 -10z"/>
<path d="M173 453 c12 -11 77 -14 77 -3 0 5 -19 10 -42 10 -23 0 -38 -3 -35
-7z"/>
<path d="M438 413 c-27 -2 -48 -7 -48 -11 0 -4 54 -6 120 -4 66 2 120 7 120
13 0 9 -92 10 -192 2z"/>
<path d="M674 413 c7 -7 77 -5 85 3 2 2 -17 4 -44 4 -27 0 -45 -3 -41 -7z"/>
<path d="M0 400 c0 -12 67 -12 95 0 14 6 4 9 -37 9 -33 1 -58 -3 -58 -9z"/>
<path d="M183 403 c15 -2 37 -2 50 0 12 2 0 4 -28 4 -27 0 -38 -2 -22 -4z"/>
<path d="M873 350 c0 -25 2 -35 4 -22 2 12 2 32 0 45 -2 12 -4 2 -4 -23z"/>
<path d="M1149 357 c-74 -22 -136 -53 -125 -64 3 -3 21 4 40 15 33 20 141 56
196 65 22 4 21 4 -5 5 -16 0 -64 -10 -106 -21z"/>
<path d="M155 352 c-3 -8 -5 -31 -5 -53 l0 -39 44 0 c47 0 56 11 56 71 0 25
-4 27 -45 31 -31 2 -46 -1 -50 -10z"/>
<path d="M410 361 c-21 -6 -25 -14 -28 -53 l-3 -47 83 -4 83 -3 -81 -2 -82 -2
-11 -82 c-7 -46 -14 -102 -17 -125 l-6 -43 144 0 145 0 11 53 11 52 -2 -53
c-2 -65 11 -69 16 -4 l3 47 2 -47 2 -48 44 0 45 0 6 55 c4 30 11 55 16 55 5 0
9 10 9 23 0 12 4 29 9 37 6 8 7 18 4 24 -4 5 -10 1 -14 -10 -5 -13 -8 -6 -9
26 -2 63 -5 80 -19 123 -12 34 -15 37 -52 37 -47 0 -53 -11 -39 -65 l10 -40
-5 45 c-3 32 -1 39 5 25 5 -11 9 -30 9 -42 1 -17 8 -23 34 -26 l32 -4 -32 -1
c-26 -2 -33 -6 -33 -22 0 -12 7 -20 18 -21 9 -1 4 -4 -13 -8 -27 -6 -31 -10
-36 -56 -5 -45 -6 -46 -9 -15 -2 19 -3 43 -2 53 2 15 -8 17 -71 19 l-72 2 70
5 c56 5 71 9 73 24 2 9 -2 17 -8 17 -6 0 -4 7 5 16 9 9 14 23 11 31 -3 8 -6
26 -6 39 l0 24 -112 -1 c-62 -1 -124 -4 -138 -8z m188 -128 c-27 -2 -69 -2
-95 0 -27 2 -5 3 47 3 52 0 74 -1 48 -3z m-160 -30 c-10 -2 -26 -2 -35 0 -10
3 -2 5 17 5 19 0 27 -2 18 -5z m249 -75 c-2 -13 -4 -3 -4 22 0 25 2 35 4 23 2
-13 2 -33 0 -45z"/>
<path d="M797 328 c6 -45 10 -55 18 -46 8 8 -6 88 -15 88 -5 0 -6 -19 -3 -42z"/>
<path d="M0 306 c0 -49 2 -55 23 -59 l22 -4 -22 -2 c-28 -1 -32 -37 -5 -44 16
-4 16 -5 0 -6 -16 -1 -18 -13 -18 -96 l0 -95 54 0 55 0 3 100 c2 55 1 100 -2
100 -12 0 -8 40 3 41 7 1 1 5 -13 9 -17 5 -19 8 -7 9 14 1 17 10 17 51 l0 50
-55 0 -55 0 0 -54z m73 -83 c-7 -2 -21 -2 -30 0 -10 3 -4 5 12 5 17 0 24 -2
18 -5z m10 -20 c-7 -2 -19 -2 -25 0 -7 3 -2 5 12 5 14 0 19 -2 13 -5z"/>
<path d="M292 340 c0 -14 2 -19 5 -12 2 6 2 18 0 25 -3 6 -5 1 -5 -13z"/>
<path d="M343 325 c0 -22 2 -30 4 -17 2 12 2 30 0 40 -3 9 -5 -1 -4 -23z"/>
<path d="M3512 350 c-18 -4 -36 -11 -40 -15 -4 -5 4 -5 18 -2 14 4 35 7 48 7
12 0 22 5 22 10 0 11 -1 11 -48 0z"/>
<path d="M2613 343 c9 -2 25 -2 35 0 9 3 1 5 -18 5 -19 0 -27 -2 -17 -5z"/>
<path d="M3120 342 c0 -4 29 -13 65 -20 80 -15 235 -16 235 -2 0 7 -25 9 -72
4 -52 -4 -93 -1 -141 10 -77 18 -87 19 -87 8z"/>
<path d="M133 300 c0 -25 2 -35 4 -22 2 12 2 32 0 45 -2 12 -4 2 -4 -23z"/>
<path d="M2671 336 c2 -2 27 -6 54 -10 34 -4 45 -3 35 4 -14 9 -99 15 -89 6z"/>
<path d="M3692 335 c4 -4 63 -14 130 -21 149 -16 168 -16 168 -6 0 5 -51 12
-112 16 -62 3 -131 9 -153 12 -22 4 -37 3 -33 -1z"/>
<path d="M1118 297 c-60 -17 -108 -34 -108 -38 0 -4 21 -1 48 7 26 8 67 20 92
25 61 15 63 15 80 22 8 3 24 8 35 10 12 3 8 5 -10 5 -16 0 -78 -14 -137 -31z"/>
<path d="M2396 305 c-11 -8 -15 -15 -9 -15 19 0 43 12 43 21 0 13 -12 11 -34
-6z"/>
<path d="M286 295 c-3 -9 -6 -22 -5 -28 0 -7 5 -1 10 12 5 13 8 26 5 28 -2 2
-6 -3 -10 -12z"/>
<path d="M3470 302 c0 -4 17 -6 38 -4 64 6 69 10 15 11 -29 0 -53 -3 -53 -7z"/>
<path d="M4040 301 c0 -5 11 -12 24 -15 13 -3 32 -9 43 -13 32 -11 8 6 -30 22
-20 8 -37 11 -37 6z"/>
<path d="M2700 286 c47 -7 100 -20 118 -29 34 -18 41 -15 18 8 -13 14 -143 36
-194 34 -15 -1 11 -7 58 -13z"/>
<path d="M3120 291 c0 -5 28 -12 63 -15 69 -8 97 -19 78 -31 -7 -4 -39 -4 -71
0 -78 9 -74 10 -81 -17 -6 -27 10 -78 26 -78 5 -1 -3 -7 -20 -15 -16 -7 -24
-14 -18 -14 9 -1 11 -17 6 -61 l-6 -61 159 3 158 3 8 35 c9 45 0 80 -21 81
-13 0 -14 1 -1 7 8 4 17 16 18 27 2 11 8 22 13 23 12 5 11 52 -1 52 -5 0 -9 6
-7 13 1 9 -14 11 -59 9 -38 -3 -64 0 -68 7 -5 7 7 11 36 11 48 0 88 9 88 19 0
4 -42 3 -92 -1 -52 -4 -110 -3 -133 2 -51 12 -75 12 -75 1z"/>
<path d="M940 280 c-21 -7 -21 -8 -5 -9 11 0 27 4 35 9 18 11 5 11 -30 0z"/>
<path d="M1238 285 c-3 -3 -50 -13 -104 -21 -55 -9 -106 -22 -115 -30 -8 -8
-21 -14 -27 -14 -6 0 -13 -12 -15 -27 l-4 -28 -2 29 c-1 21 -5 27 -17 22 -9
-3 -22 -6 -29 -6 -21 0 -45 -29 -45 -56 0 -15 -6 -24 -15 -24 -13 0 -15 8 -10
38 5 32 5 35 -7 17 -7 -11 -14 -29 -15 -40 -2 -10 -7 -22 -11 -25 -4 -3 -8
-32 -8 -65 l-2 -60 10 55 c10 53 23 74 40 64 4 -3 5 -31 2 -62 -4 -31 -4 -55
-1 -52 3 3 8 30 12 60 6 51 13 63 32 61 5 -1 6 -28 5 -61 l-4 -60 161 0 c122
0 161 3 161 13 0 9 3 8 9 -2 7 -11 9 -11 14 0 4 10 6 10 6 2 1 -9 17 -13 45
-13 45 0 45 0 40 33 -27 195 -36 242 -47 249 -14 9 -51 11 -59 3z"/>
<path d="M2970 280 c-8 -5 -10 -10 -5 -10 6 0 17 5 25 10 8 5 11 10 5 10 -5 0
-17 -5 -25 -10z"/>
<path d="M3690 282 c14 -9 230 -33 282 -31 58 1 -22 16 -122 23 -58 4 -121 9
-140 12 -24 3 -30 2 -20 -4z"/>
<path d="M2910 270 c0 -5 5 -10 10 -10 6 0 10 5 10 10 0 6 -4 10 -10 10 -5 0
-10 -4 -10 -10z"/>
<path d="M2442 258 c-14 -14 -16 -28 -3 -28 9 0 24 30 18 36 -2 2 -9 -2 -15
-8z"/>
<path d="M2524 218 c-15 -29 -32 -56 -38 -60 -7 -5 -6 -8 3 -8 11 0 13 -14 8
-75 l-7 -75 180 0 179 0 4 43 4 42 1 -42 2 -43 50 0 c49 0 50 0 51 33 4 90 4
90 28 92 26 2 45 25 31 39 -4 4 -6 14 -4 21 3 8 -7 15 -27 19 -55 11 -69 8
-70 -16 -1 -22 -1 -22 -9 2 -7 21 -8 22 -10 5 l-1 -20 -9 20 c-5 12 -9 14 -9
6 -1 -12 -3 -12 -13 1 -17 21 -98 45 -178 53 -36 3 -82 8 -102 11 -36 5 -37 5
-64 -48z m381 -58 c3 -5 1 -10 -4 -10 -6 0 -11 5 -11 10 0 6 2 10 4 10 3 0 8
-4 11 -10z m45 -23 c10 -4 8 -6 -7 -6 -16 -1 -23 5 -23 17 0 10 3 13 8 6 4 -6
14 -14 22 -17z"/>
<path d="M3470 220 c0 -45 2 -50 23 -50 12 0 29 -5 37 -10 10 -6 3 -8 -22 -3
-34 5 -38 3 -38 -15 0 -13 8 -22 23 -25 13 -3 8 -5 -15 -6 -33 -1 -38 -4 -38
-25 0 -13 -2 -39 -5 -57 -4 -26 -3 -30 4 -14 8 17 10 18 10 3 1 -14 10 -18 41
-18 45 0 39 -13 64 149 8 57 13 108 10 113 -3 4 -25 8 -50 8 l-44 0 0 -50z
m53 -87 c-7 -2 -21 -2 -30 0 -10 3 -4 5 12 5 17 0 24 -2 18 -5z m-66 -70 c-3
-10 -5 -4 -5 12 0 17 2 24 5 18 2 -7 2 -21 0 -30z"/>
<path d="M3447 218 c8 -59 13 -61 13 -5 0 26 -4 47 -9 47 -5 0 -7 -19 -4 -42z"/>
<path d="M4030 253 c0 -5 20 -13 45 -19 25 -6 45 -7 45 -3 0 4 -12 10 -27 13
-16 4 -36 9 -45 12 -10 3 -18 2 -18 -3z"/>
<path d="M146 189 c-3 -34 -6 -91 -6 -125 l0 -64 45 0 45 0 0 69 c0 38 3 82 6
99 6 30 5 31 -37 35 l-44 4 43 1 c35 2 42 5 42 22 0 17 -7 20 -44 20 l-43 0
-7 -61z m41 35 c-3 -3 -12 -4 -19 -1 -8 3 -5 6 6 6 11 1 17 -2 13 -5z"/>
<path d="M910 240 c-12 -8 -12 -10 5 -10 11 0 27 5 35 10 12 8 12 10 -5 10
-11 0 -27 -5 -35 -10z"/>
<path d="M2237 207 c-24 -23 -56 -60 -72 -82 -16 -22 -46 -57 -68 -78 -37 -36
-46 -65 -11 -37 13 11 17 11 24 1 6 -11 9 -11 13 0 4 10 6 10 6 2 1 -10 30
-13 110 -13 l108 0 7 40 c9 57 36 55 37 -2 0 -33 2 -38 9 -23 5 11 9 32 9 46
1 21 17 39 34 39 1 0 0 -22 -1 -50 -3 -32 0 -50 7 -50 6 0 11 17 11 38 0 20 4
52 9 69 10 35 13 35 -56 -1 -18 -9 -33 -14 -33 -10 0 3 -7 1 -15 -6 -21 -17
-80 -23 -104 -11 -15 9 -23 7 -35 -5 -10 -10 -24 -13 -37 -9 l-21 7 21 14 c11
8 26 13 33 12 9 -2 12 7 10 28 -2 20 4 36 18 49 24 21 27 9 4 -16 -9 -10 -14
-24 -11 -31 2 -8 12 0 23 21 11 19 31 48 46 66 l27 32 -29 1 c-23 0 -41 -10
-73 -41z m73 29 c0 -3 -4 -8 -10 -11 -5 -3 -10 -1 -10 4 0 6 5 11 10 11 6 0
10 -2 10 -4z"/>
<path d="M3670 192 c0 -28 -3 -57 -6 -66 -4 -11 0 -16 12 -17 17 0 17 -1 -1
-9 -19 -7 -18 -8 5 -14 14 -3 61 -10 105 -15 53 -5 65 -9 35 -9 -25 0 -70 3
-100 7 -30 5 -56 7 -58 6 -2 -1 -6 -19 -9 -39 l-6 -36 157 0 c118 0 156 3 156
13 0 8 4 7 10 -3 8 -12 10 -11 10 7 0 24 -12 29 -80 36 -26 3 -21 5 20 7 51 2
53 3 20 10 l-35 7 33 2 c21 1 32 6 32 16 0 8 5 15 10 15 6 0 10 5 10 11 0 5
-3 8 -7 6 -5 -3 -6 14 -5 38 4 43 3 44 -30 49 -18 3 -69 8 -113 11 -44 3 -99
8 -122 12 l-43 5 0 -50z m179 -78 c8 -7 -83 -3 -129 6 -33 6 -22 7 40 3 47 -3
87 -7 89 -9z m89 -11 c-10 -2 -28 -2 -40 0 -13 2 -5 4 17 4 22 1 32 -1 23 -4z
m-170 -10 c-10 -2 -28 -2 -40 0 -13 2 -5 4 17 4 22 1 32 -1 23 -4z m95 -10
c-13 -2 -35 -2 -50 0 -16 2 -5 4 22 4 28 0 40 -2 28 -4z"/>
<path d="M1526 215 c-3 -9 0 -15 9 -15 16 0 20 16 6 24 -5 3 -11 -1 -15 -9z"/>
<path d="M3593 195 c0 -22 2 -30 4 -17 2 12 2 30 0 40 -3 9 -5 -1 -4 -23z"/>
<path d="M3051 193 c-1 -18 4 -33 9 -33 12 0 12 17 0 45 -7 17 -9 15 -9 -12z"/>
<path d="M3632 195 c0 -16 2 -22 5 -12 2 9 2 23 0 30 -3 6 -5 -1 -5 -18z"/>
<path d="M3998 158 c3 -29 9 -56 15 -60 6 -3 -1 -8 -14 -11 -23 -4 -23 -4 -2
-6 15 -1 21 -6 17 -15 -4 -11 4 -16 28 -19 l33 -4 -32 -1 c-26 -2 -33 -6 -33
-22 0 -17 7 -20 45 -20 33 0 45 4 45 15 0 8 -6 15 -12 15 -9 0 -9 3 -2 8 6 4
13 15 17 24 5 14 -3 19 -36 27 l-42 11 42 -5 42 -5 7 46 c3 25 3 49 -2 53 -5
5 -28 11 -51 15 l-42 6 -4 -42 -4 -43 -1 43 c-1 23 -6 42 -11 42 -4 0 -6 -24
-3 -52z m75 -95 c-7 -2 -21 -2 -30 0 -10 3 -4 5 12 5 17 0 24 -2 18 -5z"/>
<path d="M276 178 c-3 -13 -5 -39 -5 -58 1 -27 3 -22 9 20 9 58 7 77 -4 38z"/>
<path d="M326 185 c-3 -9 -5 -31 -5 -48 1 -27 3 -24 9 13 8 48 6 61 -4 35z"/>
<path d="M1551 174 c0 -11 3 -14 6 -6 3 7 2 16 -1 19 -3 4 -6 -2 -5 -13z"/>
<path d="M1570 172 c0 -6 5 -14 10 -17 6 -4 7 -11 4 -17 -5 -7 -2 -8 5 -3 9 5
12 -1 10 -22 -2 -19 4 -37 19 -53 12 -13 22 -27 22 -32 0 -4 17 -8 37 -8 20 0
64 -5 98 -11 34 -6 75 -9 91 -7 26 3 22 7 -46 42 -41 20 -99 47 -128 58 -30
11 -69 34 -88 50 -19 17 -34 25 -34 20z"/>
<path d="M123 80 c0 -30 2 -43 4 -28 2 16 2 40 0 55 -2 16 -4 3 -4 -27z"/>
<path d="M313 50 c0 -30 2 -43 4 -28 2 16 2 40 0 55 -2 16 -4 3 -4 -27z"/>
<path d="M2998 58 c-5 -48 0 -67 13 -47 11 18 11 89 0 89 -5 0 -11 -19 -13
-42z"/>
<path d="M3056 84 c-10 -25 -7 -84 4 -84 6 0 10 23 10 50 0 52 -4 61 -14 34z"/>
<path d="M1366 58 c11 -56 24 -68 22 -19 -2 25 -9 46 -15 49 -9 2 -11 -6 -7
-30z"/>
<path d="M3573 45 c0 -27 2 -38 4 -22 2 15 2 37 0 50 -2 12 -4 0 -4 -28z"/>
<path d="M3613 40 c0 -25 2 -35 4 -22 2 12 2 32 0 45 -2 12 -4 2 -4 -23z"/>
<path d="M1416 48 c14 -48 23 -54 24 -15 0 27 -4 37 -16 37 -11 0 -14 -6 -8
-22z"/>
<path d="M1460 66 c0 -1 5 -17 11 -35 l11 -31 111 1 c81 1 101 3 73 9 -21 4
-46 17 -55 28 -14 18 -24 20 -73 16 -36 -2 -58 0 -58 6 0 5 -4 10 -10 10 -5 0
-10 -2 -10 -4z"/>
<path d="M262 25 c0 -17 2 -22 5 -12 2 9 2 23 0 30 -3 6 -5 -1 -5 -18z"/>
<path d="M3992 20 c0 -14 2 -19 5 -12 2 6 2 18 0 25 -3 6 -5 1 -5 -13z"/>
</g>
</svg>
